<svg width="67" height="67" xmlns="http://www.w3.org/2000/svg">

 <g>
  <title>background</title>
  <rect fill="none" id="canvas_background" height="402" width="582" y="-1" x="-1"/>
 </g>
 <g>
  <title>Layer 1</title>
  <path stroke="null" id="svg_1" fill-rule="evenodd" clip-rule="evenodd" fill="#e08700" d="m19.680098,34.166263c-0.060187,0 0.659826,1.526557 0.679888,1.526557c1.571545,2.809668 4.600948,4.556218 9.711256,5.040875c-0.728929,0.544959 -1.604982,1.579042 -1.72647,2.773933c-0.917292,0.584045 -2.761907,0.777237 -4.195245,0.331666c-2.009571,-0.624247 -2.778625,-4.540584 -5.786852,-3.982224c-0.650909,0.119489 -0.521619,0.542726 0.041239,0.903427c0.917292,0.584045 1.77997,1.315496 2.445368,2.871088c0.511588,1.194891 1.586034,3.328943 4.985475,3.328943c1.348631,0 2.293787,-0.159691 2.293787,-0.159691s0.025635,3.049763 0.025635,4.23572c0,1.367982 -1.874708,1.753251 -1.874708,2.410999c0,0.260196 0.620816,0.284764 1.119029,0.284764c0.985281,0 3.034976,-0.809622 3.034976,-2.231207c0,-1.129004 0.018948,-4.924736 0.018948,-5.590301c0,-1.451736 0.790231,-1.911825 0.790231,-1.911825s0.098082,7.750038 -0.188362,8.790821c-0.3366,1.221692 -0.944041,1.0486 -0.944041,1.59356c0,0.810739 2.46766,0.199893 3.285755,-1.581276c0.631962,-1.383616 0.355548,-8.989598 0.355548,-8.989598l0.674315,-0.013401c0,0 0.037895,3.480817 0.014489,5.072143c-0.023406,1.648279 -0.135978,3.732079 0.85822,4.714793c0.653139,0.646581 2.768594,1.780052 2.768594,0.743736c0,-0.601912 -1.159154,-1.096619 -1.159154,-2.725914l0,-7.498776c0.926208,0 0.786887,2.465718 0.786887,2.465718l0.067989,4.581903c0,0 -0.205081,1.66838 1.833469,2.36633c0.718898,0.249029 2.257006,0.316032 2.329453,-0.100505c0.072447,-0.416537 -1.852417,-1.036316 -1.87025,-2.327245c-0.011146,-0.789521 0.035666,-1.24961 0.035666,-4.675708c0,-3.426098 -0.467005,-4.692458 -2.095393,-5.701973c5.024485,-0.508108 8.135252,-1.732033 9.649954,-5.009607c0.118145,0.00335 0.618587,-1.531023 0.552827,-1.531023c0.339944,-1.237326 0.523848,-2.701346 0.559515,-4.434496c-0.008917,-4.701392 -2.293787,-6.364188 -2.731813,-7.144776c0.646451,-3.558987 -0.109228,-5.178232 -0.459203,-5.734358c-1.295131,-0.453388 -4.503981,1.166973 -6.258315,2.308261c-2.85776,-0.823023 -8.900963,-0.743736 -11.166885,0.212177c-4.180755,-2.947025 -6.393178,-2.49587 -6.393178,-2.49587s-1.429994,2.522671 -0.37784,6.214548c-1.37538,1.726449 -2.400786,2.948141 -2.400786,6.185513c0,1.824721 0.218456,3.457366 0.709982,4.882301zm13.884209,32.867309c-18.46621,0 -33.437125,-14.999786 -33.437125,-33.501606c0,-18.502937 14.970915,-33.501606 33.437125,-33.501606s33.437125,14.998669 33.437125,33.501606c0,18.50182 -14.970915,33.501606 -33.437125,33.501606z"/>
 </g>
</svg>